<svg width="119" height="56" viewBox="0 0 119 56" fill="none" xmlns="http://www.w3.org/2000/svg">
<g clip-path="url(#clip0_371_440)">
<path d="M48.2138 21.1822C47.4367 15.0325 44.7748 9.89523 40.0189 5.85121C34.4436 1.10993 27.9358 -0.725218 20.6905 0.256505C14.762 1.05973 9.79422 3.77341 5.84375 8.2581C3.13098 11.3427 1.4129 14.7871 0.562334 18.3319C0.743185 18.3319 0.92121 18.3319 1.10206 18.3319C3.82896 18.3319 6.55585 18.3319 9.28275 18.3319C9.4749 18.3319 9.66423 18.3765 9.74618 18.0948C10.3933 15.8246 11.9673 14.2823 13.9171 13.0663C16.0929 11.7081 18.5061 10.9913 21.0409 10.7012C25.483 10.1909 29.7896 10.8072 33.9689 12.344C35.3055 12.8348 36.563 13.4958 37.7272 14.313C37.7894 14.3576 37.8459 14.4106 37.9053 14.458C37.8968 14.4887 37.8883 14.5194 37.8798 14.55C37.6848 14.55 37.4899 14.55 37.2949 14.55C30.6288 14.55 23.9656 14.55 17.2995 14.5584C16.9633 14.5584 16.6016 14.6058 16.2936 14.7313C15.6182 15.0074 15.2339 15.7298 15.3413 16.388C15.4599 17.1159 16.076 17.6988 16.8248 17.7769C17.0367 17.7992 17.2487 17.7964 17.4634 17.7964C22.0271 17.7964 26.5879 17.7964 31.1516 17.7964C31.9683 17.7964 31.8354 17.7406 31.8439 18.4992C31.8496 18.9204 31.8354 19.3387 31.8467 19.7599C31.8524 19.983 31.762 20.0722 31.5416 20.0611C31.4229 20.0555 31.3014 20.0611 31.1827 20.0611C26.5653 20.0611 21.9508 20.0611 17.3334 20.0667C17.0085 20.0667 16.6609 20.1001 16.3585 20.2089C15.6493 20.4683 15.2282 21.2157 15.3413 21.9046C15.4628 22.6493 16.1042 23.2377 16.8644 23.2907C17.13 23.3102 17.3956 23.3047 17.6612 23.3047C22.1966 23.3047 26.7349 23.3047 31.2703 23.3047C31.6508 23.3047 31.8411 23.4878 31.8411 23.8541C31.8411 24.3143 31.8298 24.7745 31.8467 25.2319C31.8552 25.494 31.7507 25.5888 31.4963 25.5693C31.3777 25.561 31.2561 25.5693 31.1375 25.5693C26.5342 25.5693 21.931 25.5693 17.3278 25.5749C17.0141 25.5749 16.6835 25.6028 16.3896 25.7032C15.6775 25.9514 15.2395 26.6821 15.3328 27.3766C15.4345 28.1185 16.0647 28.7237 16.8276 28.799C17.0254 28.8185 17.2261 28.8129 17.4267 28.8129C24.1041 28.8129 30.7814 28.8129 37.4616 28.8129H37.8826C37.8939 28.8436 37.9053 28.8771 37.9166 28.9077C37.8063 28.9886 37.699 29.0695 37.5859 29.1476C35.2575 30.7289 32.6521 31.6381 29.9082 32.1987C27.7154 32.6478 25.4972 32.9099 23.2535 32.8346C19.8371 32.7203 16.579 32.0119 13.6712 30.1433C12.0492 29.1002 10.7126 27.7866 9.97224 25.9737C9.84791 25.6725 9.81965 25.2402 9.59641 25.098C9.35056 24.939 8.92952 25.0338 8.58477 25.0338C5.72224 25.0338 2.86253 25.0338 0 25.0338C0.135638 27.0531 0.480386 28.746 1.03989 30.397C2.9247 35.9806 5.97939 40.9004 10.0429 45.1675C12.2046 47.4405 14.5642 49.5406 16.9491 51.5905C18.7803 53.1635 20.8035 54.5134 22.9653 55.6485C23.8328 56.1031 24.5788 56.131 25.3926 55.6123C25.9521 55.2553 26.5625 54.9764 27.1164 54.6138C31.3381 51.8611 35.1077 48.6007 38.4845 44.8775C41.4431 41.6171 43.9101 38.0444 45.8005 34.0897C47.7532 30.001 48.7931 25.7534 48.2166 21.1767L48.2138 21.1822Z" fill="url(#paint0_linear_371_440)"/>
<path d="M55.2841 55.3474L71.0718 30.2187H57.703V26.0966H78.6336V26.3559L62.8459 51.4847H78.1476V55.6068H55.2812V55.3474H55.2841Z" fill="url(#paint1_linear_371_440)"/>
<path d="M80.9199 35.2527C80.9199 33.6909 82.2396 32.5195 83.6892 32.5195C85.1388 32.5195 86.4585 33.6909 86.4585 35.2527C86.4585 36.8146 85.1841 37.9859 83.6892 37.9859C82.1944 37.9859 80.9199 36.8146 80.9199 35.2527ZM81.4907 40.7666H85.8877V55.6095H81.4907V40.7666Z" fill="url(#paint2_linear_371_440)"/>
<path d="M89.5835 23.2462H93.9804V55.6096H89.5835V23.2462Z" fill="url(#paint3_linear_371_440)"/>
<path d="M97.6738 23.2462H102.071V55.6096H97.6738V23.2462Z" fill="url(#paint4_linear_371_440)"/>
<path d="M111.831 44.0213C110.249 44.0213 109.104 44.6293 108.226 45.6278L105.544 43.1986C107.214 41.3327 109.412 40.3789 112.097 40.3789C116.361 40.3789 119 42.5487 119 46.933V55.6123H114.603V54.268C113.592 55.4394 112.142 56.0028 110.382 56.0028C107.347 56.0028 104.798 54.5274 104.798 51.0551C104.798 48.1462 107.392 46.7155 110.69 46.7155H114.603C114.561 44.7186 113.417 44.0241 111.834 44.0241L111.831 44.0213ZM110.907 49.6634C109.763 49.6634 109.15 50.2268 109.15 51.097C109.15 51.9671 109.72 52.5305 111.173 52.5305C113.151 52.5305 114.603 51.4902 114.603 50.2742V49.6662H110.91L110.907 49.6634Z" fill="url(#paint5_linear_371_440)"/>
<path d="M62.9813 20.9507C64.1851 20.9507 64.8944 20.4933 65.4143 20.0611L67.0561 21.6814C66.2084 22.5711 64.9792 23.221 63.0378 23.221C59.7854 23.221 57.7056 21.1711 57.7056 18.3626C57.7056 15.5541 59.921 13.5042 62.7637 13.5042C66.0445 13.5042 67.9039 16.0672 67.6863 19.2801H60.5511C60.8252 20.3065 61.6165 20.9535 62.9842 20.9535L62.9813 20.9507ZM64.8124 17.3892C64.6203 16.4437 63.9365 15.7688 62.7609 15.7688C61.5854 15.7688 60.8479 16.335 60.5737 17.3892H64.8124Z" fill="#353535"/>
<path d="M73.2869 15.7689C72.3036 15.7689 71.5915 16.1454 71.0461 16.7674L69.3789 15.2557C70.4188 14.0955 71.7836 13.5015 73.4537 13.5015C76.1071 13.5015 77.746 14.8513 77.746 17.5762V22.9729H75.0107V22.1362C74.3805 22.8641 73.4791 23.2155 72.3855 23.2155C70.4979 23.2155 68.9126 22.2979 68.9126 20.1392C68.9126 18.332 70.5261 17.4395 72.5777 17.4395H75.0107C74.9824 16.1984 74.2731 15.7661 73.2869 15.7661V15.7689ZM72.7133 19.2775C72.0012 19.2775 71.6197 19.6289 71.6197 20.1671C71.6197 20.7054 71.9758 21.0568 72.8772 21.0568C74.1064 21.0568 75.0107 20.4098 75.0107 19.654V19.2775H72.7133Z" fill="#353535"/>
<path d="M79.2749 15.9836V13.7441H80.3685V10.4252H83.1039V13.7441H85.291V15.9836H83.1039V19.7348C83.1039 20.6803 83.4034 20.895 83.8979 20.895C84.2257 20.895 84.4998 20.7333 84.7174 20.5715L85.7827 22.4596C85.3193 22.8361 84.5789 23.2154 83.4316 23.2154C81.6542 23.2154 80.3685 22.3509 80.3685 19.7878V15.9836H79.2749Z" fill="#353535"/>
</g>
<defs>
<linearGradient id="paint0_linear_371_440" x1="0" y1="27.9985" x2="48.3748" y2="27.9985" gradientUnits="userSpaceOnUse">
<stop stop-color="#65C962"/>
<stop offset="1" stop-color="#2AB437"/>
</linearGradient>
<linearGradient id="paint1_linear_371_440" x1="51.6501" y1="34.6615" x2="88.0035" y2="49.7554" gradientUnits="userSpaceOnUse">
<stop stop-color="#65C962"/>
<stop offset="1" stop-color="#2AB437"/>
</linearGradient>
<linearGradient id="paint2_linear_371_440" x1="52.7947" y1="31.9032" x2="89.1482" y2="46.997" gradientUnits="userSpaceOnUse">
<stop stop-color="#65C962"/>
<stop offset="1" stop-color="#2AB437"/>
</linearGradient>
<linearGradient id="paint3_linear_371_440" x1="63.6314" y1="28.0433" x2="93.4061" y2="40.4047" gradientUnits="userSpaceOnUse">
<stop stop-color="#65C962"/>
<stop offset="1" stop-color="#2AB437"/>
</linearGradient>
<linearGradient id="paint4_linear_371_440" x1="66.0475" y1="25.7479" x2="95.8222" y2="38.1094" gradientUnits="userSpaceOnUse">
<stop stop-color="#65C962"/>
<stop offset="1" stop-color="#2AB437"/>
</linearGradient>
<linearGradient id="paint5_linear_371_440" x1="55.4368" y1="25.5415" x2="91.7903" y2="40.6354" gradientUnits="userSpaceOnUse">
<stop stop-color="#65C962"/>
<stop offset="1" stop-color="#2AB437"/>
</linearGradient>
<clipPath id="clip0_371_440">
<rect width="119" height="56" fill="white"/>
</clipPath>
</defs>
</svg>
