<svg width="14" height="16" viewBox="0 0 14 16" fill="none" xmlns="http://www.w3.org/2000/svg">
<rect width="14" height="16" fill="#1E1E1E"/>
<g id="5">
<rect width="1440" height="3469" transform="translate(-360 -53)" fill="white"/>
<g id="Group 1707480183">
<g id="Input">
<rect x="-13.5" y="-17.5" width="224" height="51" rx="7.5" fill="#F9FAFB"/>
<rect x="-13.5" y="-17.5" width="224" height="51" rx="7.5" stroke="#D1D5DB"/>
<path id="Vector" d="M7.33478 0.500003H7.33523C8.41188 0.500067 9.46817 0.788272 10.3923 1.3337C11.3163 1.87911 12.0735 2.66126 12.5843 3.59683C13.0951 4.53236 13.3406 5.58678 13.2954 6.64859C13.2501 7.7104 12.9156 8.74072 12.3269 9.6305L12.3079 9.65916L12.2931 9.69014C12.2845 9.70796 12.2737 9.72481 12.2609 9.74026L12.2601 9.74117L12.1575 9.86517L12.1487 9.87582L12.1405 9.88693C12.0077 10.0667 11.8643 10.2385 11.7111 10.4016L11.7005 10.4129L11.6906 10.4249L7.57537 15.3886C7.57533 15.3886 7.57529 15.3886 7.57526 15.3887C7.54672 15.423 7.51053 15.4511 7.46905 15.4704C7.4275 15.4899 7.38187 15.5 7.3355 15.5L7.33429 15.5C7.28805 15.5001 7.24254 15.4901 7.20104 15.4708C7.15977 15.4516 7.1237 15.4239 7.09515 15.39C7.09501 15.3898 7.09487 15.3896 7.09472 15.3895L2.85667 10.2916L2.85677 10.2915L2.84946 10.2831C2.77499 10.1975 2.68771 10.0923 2.60288 9.9836L2.59822 9.97762L2.59337 9.97178L2.49639 9.85498L2.49572 9.85418C2.48155 9.83719 2.46939 9.8188 2.45939 9.79937L2.444 9.76942L2.42472 9.74181C1.8071 8.85701 1.44618 7.82228 1.38052 6.74973C1.31487 5.67719 1.54694 4.60708 2.05196 3.65523C2.55701 2.70333 3.31596 1.90569 4.24718 1.34925C5.17845 0.792786 6.24622 0.49895 7.33478 0.500003ZM8.95816 3.98743C8.47734 3.66943 7.91258 3.5 7.33526 3.5C6.56123 3.5 5.81789 3.80431 5.26902 4.34759C4.71998 4.89104 4.41059 5.62921 4.41059 6.4C4.41059 6.97471 4.58279 7.53609 4.90481 8.01312C5.22678 8.49009 5.68388 8.86107 6.21771 9.07994C6.75149 9.29879 7.33855 9.35597 7.90488 9.24447C8.47124 9.13296 8.99216 8.8576 9.40151 8.45241C9.81091 8.04718 10.0903 7.53025 10.2035 6.96673C10.3168 6.40317 10.2586 5.81908 10.0366 5.28854C9.81462 4.75806 9.43904 4.30548 8.95816 3.98743Z" fill="#6B7280" stroke="#6B7280"/>
</g>
</g>
</g>
</svg>
